<mxfile host="app.diagrams.net" modified="2023-12-19T09:04:59.169Z" agent="Mozilla/5.0 (Windows NT 10.0; Win64; x64) AppleWebKit/537.36 (KHTML, like Gecko) Chrome/120.0.0.0 Safari/537.36" etag="H1io0iX6kQseC4m0o1vZ" version="22.1.11" type="device">
  <diagram id="C5RBs43oDa-KdzZeNtuy" name="Page-1">
    <mxGraphModel dx="1434" dy="789" grid="1" gridSize="10" guides="1" tooltips="1" connect="1" arrows="1" fold="1" page="1" pageScale="1" pageWidth="827" pageHeight="1169" background="#006633" math="0" shadow="0">
      <root>
        <mxCell id="WIyWlLk6GJQsqaUBKTNV-0" />
        <mxCell id="WIyWlLk6GJQsqaUBKTNV-1" parent="WIyWlLk6GJQsqaUBKTNV-0" />
        <mxCell id="VZ8zqoap5XIy6vC2VqQf-2" value="" style="edgeStyle=none;curved=1;rounded=0;orthogonalLoop=1;jettySize=auto;html=1;fontSize=12;startSize=8;endSize=8;" edge="1" parent="WIyWlLk6GJQsqaUBKTNV-1" source="VZ8zqoap5XIy6vC2VqQf-0" target="VZ8zqoap5XIy6vC2VqQf-1">
          <mxGeometry relative="1" as="geometry" />
        </mxCell>
        <mxCell id="VZ8zqoap5XIy6vC2VqQf-0" value="find_max(int*&lt;font color=&quot;#990000&quot;&gt;mass&lt;/font&gt;, int&lt;font color=&quot;#990000&quot;&gt; size&lt;/font&gt;)" style="ellipse;whiteSpace=wrap;html=1;fontSize=16;" vertex="1" parent="WIyWlLk6GJQsqaUBKTNV-1">
          <mxGeometry x="250" y="50" width="210" height="80" as="geometry" />
        </mxCell>
        <mxCell id="VZ8zqoap5XIy6vC2VqQf-4" value="" style="edgeStyle=none;curved=1;rounded=0;orthogonalLoop=1;jettySize=auto;html=1;fontSize=12;startSize=8;endSize=8;" edge="1" parent="WIyWlLk6GJQsqaUBKTNV-1" source="VZ8zqoap5XIy6vC2VqQf-1" target="VZ8zqoap5XIy6vC2VqQf-3">
          <mxGeometry relative="1" as="geometry" />
        </mxCell>
        <mxCell id="VZ8zqoap5XIy6vC2VqQf-1" value="max = &lt;font color=&quot;#990000&quot;&gt;mass&lt;/font&gt;[0]" style="whiteSpace=wrap;html=1;fontSize=16;" vertex="1" parent="WIyWlLk6GJQsqaUBKTNV-1">
          <mxGeometry x="295" y="170" width="120" height="60" as="geometry" />
        </mxCell>
        <mxCell id="VZ8zqoap5XIy6vC2VqQf-6" value="" style="edgeStyle=none;curved=1;rounded=0;orthogonalLoop=1;jettySize=auto;html=1;fontSize=12;startSize=8;endSize=8;" edge="1" parent="WIyWlLk6GJQsqaUBKTNV-1" source="VZ8zqoap5XIy6vC2VqQf-3" target="VZ8zqoap5XIy6vC2VqQf-5">
          <mxGeometry relative="1" as="geometry" />
        </mxCell>
        <mxCell id="VZ8zqoap5XIy6vC2VqQf-3" value="i = 1; i &amp;lt;&lt;font color=&quot;#990000&quot;&gt;size&lt;/font&gt;;i++" style="shape=hexagon;perimeter=hexagonPerimeter2;whiteSpace=wrap;html=1;fixedSize=1;fontSize=16;" vertex="1" parent="WIyWlLk6GJQsqaUBKTNV-1">
          <mxGeometry x="280" y="260" width="150" height="50" as="geometry" />
        </mxCell>
        <mxCell id="VZ8zqoap5XIy6vC2VqQf-8" value="" style="edgeStyle=none;curved=1;rounded=0;orthogonalLoop=1;jettySize=auto;html=1;fontSize=12;startSize=8;endSize=8;" edge="1" parent="WIyWlLk6GJQsqaUBKTNV-1" source="VZ8zqoap5XIy6vC2VqQf-5" target="VZ8zqoap5XIy6vC2VqQf-7">
          <mxGeometry relative="1" as="geometry" />
        </mxCell>
        <mxCell id="VZ8zqoap5XIy6vC2VqQf-5" value="max&amp;lt;&lt;font color=&quot;#990000&quot;&gt;mass&lt;/font&gt;[i]" style="rhombus;whiteSpace=wrap;html=1;fontSize=16;" vertex="1" parent="WIyWlLk6GJQsqaUBKTNV-1">
          <mxGeometry x="290" y="340" width="130" height="80" as="geometry" />
        </mxCell>
        <mxCell id="VZ8zqoap5XIy6vC2VqQf-7" value="max = &lt;font color=&quot;#990000&quot;&gt;mass&lt;/font&gt;[i]" style="whiteSpace=wrap;html=1;fontSize=16;" vertex="1" parent="WIyWlLk6GJQsqaUBKTNV-1">
          <mxGeometry x="295" y="460" width="120" height="60" as="geometry" />
        </mxCell>
        <mxCell id="VZ8zqoap5XIy6vC2VqQf-9" value="" style="edgeStyle=elbowEdgeStyle;elbow=horizontal;endArrow=classic;html=1;curved=0;rounded=0;endSize=8;startSize=8;fontSize=12;exitX=0;exitY=0.5;exitDx=0;exitDy=0;entryX=0;entryY=0.5;entryDx=0;entryDy=0;" edge="1" parent="WIyWlLk6GJQsqaUBKTNV-1" source="VZ8zqoap5XIy6vC2VqQf-7" target="VZ8zqoap5XIy6vC2VqQf-3">
          <mxGeometry width="50" height="50" relative="1" as="geometry">
            <mxPoint x="330" y="390" as="sourcePoint" />
            <mxPoint x="380" y="340" as="targetPoint" />
            <Array as="points">
              <mxPoint x="260" y="390" />
            </Array>
          </mxGeometry>
        </mxCell>
        <mxCell id="VZ8zqoap5XIy6vC2VqQf-10" value="+" style="text;html=1;align=center;verticalAlign=middle;resizable=0;points=[];autosize=1;strokeColor=none;fillColor=none;fontSize=16;" vertex="1" parent="WIyWlLk6GJQsqaUBKTNV-1">
          <mxGeometry x="355" y="308" width="30" height="30" as="geometry" />
        </mxCell>
        <mxCell id="VZ8zqoap5XIy6vC2VqQf-11" value="+" style="text;html=1;align=center;verticalAlign=middle;resizable=0;points=[];autosize=1;strokeColor=none;fillColor=none;fontSize=16;" vertex="1" parent="WIyWlLk6GJQsqaUBKTNV-1">
          <mxGeometry x="355" y="408" width="30" height="30" as="geometry" />
        </mxCell>
        <mxCell id="VZ8zqoap5XIy6vC2VqQf-12" value="" style="edgeStyle=elbowEdgeStyle;elbow=horizontal;endArrow=classic;html=1;curved=0;rounded=0;endSize=8;startSize=8;fontSize=12;exitX=0;exitY=0.5;exitDx=0;exitDy=0;entryX=0;entryY=0.5;entryDx=0;entryDy=0;" edge="1" parent="WIyWlLk6GJQsqaUBKTNV-1" source="VZ8zqoap5XIy6vC2VqQf-5" target="VZ8zqoap5XIy6vC2VqQf-3">
          <mxGeometry width="50" height="50" relative="1" as="geometry">
            <mxPoint x="330" y="450" as="sourcePoint" />
            <mxPoint x="380" y="400" as="targetPoint" />
            <Array as="points">
              <mxPoint x="260" y="330" />
            </Array>
          </mxGeometry>
        </mxCell>
        <mxCell id="VZ8zqoap5XIy6vC2VqQf-13" value="-" style="text;html=1;align=center;verticalAlign=middle;resizable=0;points=[];autosize=1;strokeColor=none;fillColor=none;fontSize=16;" vertex="1" parent="WIyWlLk6GJQsqaUBKTNV-1">
          <mxGeometry x="265" y="358" width="30" height="30" as="geometry" />
        </mxCell>
        <mxCell id="VZ8zqoap5XIy6vC2VqQf-14" value="max" style="ellipse;whiteSpace=wrap;html=1;fontSize=16;" vertex="1" parent="WIyWlLk6GJQsqaUBKTNV-1">
          <mxGeometry x="330" y="553" width="80" height="32" as="geometry" />
        </mxCell>
        <mxCell id="VZ8zqoap5XIy6vC2VqQf-16" value="" style="edgeStyle=elbowEdgeStyle;elbow=horizontal;endArrow=classic;html=1;curved=0;rounded=0;endSize=8;startSize=8;fontSize=12;entryX=1;entryY=0.5;entryDx=0;entryDy=0;exitX=1;exitY=0.5;exitDx=0;exitDy=0;" edge="1" parent="WIyWlLk6GJQsqaUBKTNV-1" source="VZ8zqoap5XIy6vC2VqQf-3" target="VZ8zqoap5XIy6vC2VqQf-14">
          <mxGeometry width="50" height="50" relative="1" as="geometry">
            <mxPoint x="460" y="420" as="sourcePoint" />
            <mxPoint x="440" y="530" as="targetPoint" />
            <Array as="points">
              <mxPoint x="450" y="430" />
            </Array>
          </mxGeometry>
        </mxCell>
      </root>
    </mxGraphModel>
  </diagram>
</mxfile>
